<svg id="Слой_1" data-name="Слой 1" xmlns="http://www.w3.org/2000/svg" width="294.45161" height="125.67742" viewBox="0 0 294.45161 125.67742"><defs><style>.cls-1{fill:none;}.cls-2{fill:#202428;stroke:#202428;stroke-width:0.4px;}.cls-2,.cls-3{stroke-miterlimit:10;}.cls-3{fill:#fdfdfd;stroke:#4158a0;}.cls-4{fill:#4158a0;}</style></defs><rect class="cls-1" width="294.45161" height="125.67742"/><path class="cls-2" d="M96.802,77.99052V52.5203h3.55566l6.25879,22.499,6.292-22.499h3.52246V77.99052h-2.05371V54.33964l-6.59277,23.65088h-2.28613L98.85468,54.33964V77.99052Z"/><path class="cls-2" d="M120.70331,65.23856q0-6.82617,1.81934-10.02294a6.68548,6.68548,0,0,1,11.40039-.00831q1.81934,3.18823,1.81934,10.03125,0,6.84375-1.82813,10.05616a6.64687,6.64687,0,0,1-11.38281,0Q120.70332,72.08232,120.70331,65.23856Zm2.18653,0q0,5.75831,1.30176,8.521a4.30894,4.30894,0,0,0,8.0371.0166q1.29347-2.74584,1.29395-8.5376,0-5.79126-1.29395-8.5371a4.30894,4.30894,0,0,0-8.0371.0166Q122.89082,59.48075,122.88984,65.23856Z"/><path class="cls-2" d="M139.99824,77.99052V52.5203h5.30761q5.14014,0,7.23535,2.83741,2.09474,2.8374,2.09473,9.88085,0,7.02687-2.10254,9.88965-2.10351,2.86232-7.22754,2.86231Zm2.21972-1.91944h2.9541q4.12355,0,5.65039-2.228,1.52637-2.22876,1.52735-8.5708,0-6.39258-1.52735-8.6294-1.52783-2.23608-5.65039-2.23633H142.218Z"/><path class="cls-2" d="M158.90839,77.99052V52.5203H170.592v1.98633H161.2121v9.19629h8.41211V65.656H161.2121V76.00419H170.592v1.98633Z"/><path class="cls-2" d="M174.33124,77.99052V52.5203h4.99024q4.13964,0,6.07519,1.544a5.78682,5.78682,0,0,1,1.93653,4.81543,7.50648,7.50648,0,0,1-.93457,3.96387,5.52244,5.52244,0,0,1-2.8711,2.26171,4.15153,4.15153,0,0,1,2.46192,1.70215,8.61819,8.61819,0,0,1,.92675,3.90576q.04981.80127.09961,2.23682.15089,4.00562,1.20215,5.04053h-2.4707q-.6167-.73462-.76758-4.67334-.0498-1.08472-.083-1.686-.167-3.42114-1.085-4.46484a4.29314,4.29314,0,0,0-3.32226-1.043h-4.00489V77.99052Zm2.15332-13.73633h2.18555q3.55518,0,5.04981-1.19385a4.74222,4.74222,0,0,0,1.49316-3.93066,4.31838,4.31838,0,0,0-1.418-3.59668,7.31743,7.31743,0,0,0-4.54-1.12647h-2.77051Z"/><path class="cls-2" d="M191.78925,77.99052V52.5203h2.43652L203.924,74.73564V52.5203h2.01953V77.99052h-2.48731l-9.64746-21.78174V77.99052Z"/><path class="cls-2" d="M96.802,119.01005V93.53983h3.55566l6.25879,22.499,6.292-22.499h3.52246v25.47022h-2.05371V95.35917l-6.59277,23.65088h-2.28613L98.85468,95.35917v23.65088Z"/><path class="cls-2" d="M121.20429,119.01005V93.53983h11.68359v1.98633H123.508v9.19629h8.41211v1.95313H123.508v10.34814h9.37988v1.98633Z"/><path class="cls-2" d="M140.53242,119.01005V95.59257h-5.8086V93.53983h13.80371v2.05274h-5.77539v23.41748Z"/><path class="cls-2" d="M151.33124,119.01005V93.53983h2.12012v10.79883h10.08106V93.53983h2.12011v25.47022h-2.12011V106.325H153.45136v12.68506Z"/><path class="cls-2" d="M169.94062,106.2581q0-6.82618,1.81933-10.02295a6.68548,6.68548,0,0,1,11.4004-.0083q1.81934,3.18822,1.81933,10.03125,0,6.84375-1.82812,10.05615a6.64688,6.64688,0,0,1-11.38282,0Q169.94062,113.10185,169.94062,106.2581Zm2.18652,0q0,5.75829,1.30176,8.521a4.30894,4.30894,0,0,0,8.03711.0166q1.29345-2.74584,1.29394-8.53759,0-5.79126-1.29394-8.53711a4.30894,4.30894,0,0,0-8.03711.0166Q172.12812,100.50029,172.12714,106.2581Z"/><path class="cls-2" d="M189.23554,119.01005V93.53983h5.30762q5.14014,0,7.23535,2.83741,2.09472,2.8374,2.09473,9.88086,0,7.02686-2.10254,9.88964-2.10353,2.86231-7.22754,2.86231Zm2.21973-1.91943h2.9541q4.12353,0,5.65039-2.228,1.52637-2.22876,1.52734-8.5708,0-6.39258-1.52734-8.6294-1.52784-2.23608-5.65039-2.23633h-2.9541Z"/><path class="cls-2" d="M216.14179,119.01005V93.53983h4.52344q4.33887,0,6.20019,1.46875,1.86182,1.46925,1.86133,4.79053a7.26773,7.26773,0,0,1-.81738,3.64649,5.14347,5.14347,0,0,1-2.50391,2.16162,6.6466,6.6466,0,0,1,3.1377,2.31152,6.48824,6.48824,0,0,1,1.001,3.74756q0,3.75513-1.96093,5.54932-1.96143,1.79442-6.06641,1.79443Zm2.12012-14.2207h3.05371a5.7143,5.7143,0,0,0,4.00586-1.17676,4.93169,4.93169,0,0,0,1.25195-3.74707,4.16838,4.16838,0,0,0-1.25195-3.42969q-1.251-1.01-4.32227-1.00977h-2.7373Zm0,12.30127h2.9873q3.25488,0,4.665-1.26856a5.34872,5.34872,0,0,0,1.41016-4.15576,4.67338,4.67338,0,0,0-1.43555-3.78076,6.852,6.852,0,0,0-4.47266-1.21h-3.15429Z"/><path class="cls-2" d="M247.45331,93.53983v18.74366a7.49265,7.49265,0,0,1-1.77734,5.38281,8.15976,8.15976,0,0,1-10.36523.0083,7.49154,7.49154,0,0,1-1.77735-5.39111V93.53983h2.12012V110.698a20.59608,20.59608,0,0,0,.1582,3.12109,4.85807,4.85807,0,0,0,.52539,1.53565,4.33548,4.33548,0,0,0,1.71094,1.644,5.51649,5.51649,0,0,0,4.92383-.0083,4.2913,4.2913,0,0,0,1.71094-1.63574,4.37252,4.37252,0,0,0,.501-1.35206,11.61646,11.61646,0,0,0,.15039-2.13623V93.53983Z"/><path class="cls-2" d="M252.29316,119.01005V93.53983h2.15332v25.47022Z"/><path class="cls-2" d="M259.3039,119.01005V93.53983h2.05273v23.55079h9.43067v1.91943Z"/><path class="cls-2" d="M273.9416,119.01005V93.53983h5.30761q5.14014,0,7.23535,2.83741,2.09474,2.8374,2.09473,9.88086,0,7.02686-2.10254,9.88964-2.10351,2.86231-7.22754,2.86231Zm2.21972-1.91943h2.9541q4.12355,0,5.65039-2.228,1.52637-2.22876,1.52735-8.5708,0-6.39258-1.52735-8.6294-1.52783-2.23608-5.65039-2.23633h-2.9541Z"/><path class="cls-3" d="M5.41934,19.27442V120.70973H17.16128V10.77747Q11.29033,15.026,5.41934,19.27442Z"/><path class="cls-3" d="M77.03223,120.70972H85.8064V50.74146q-4.387-4.13269-8.77417-8.2655Z"/><path class="cls-3" d="M18.9032,120.70972h8.19355V15.56531Q23,13.52168,18.9032,11.47809Z"/><path class="cls-3" d="M67.61286,44.405v76.30468h7.871V41.01734l-.25806-.2431Q71.4193,42.58963,67.61286,44.405Z"/><path class="cls-3" d="M28.9032,120.70972H36.129V19.65253q-3.61295-1.63485-7.22583-3.26977Z"/><path class="cls-3" d="M58.83869,120.70972h7.3629V45.14344q-3.68139,1.723-7.3629,3.44617Z"/><path class="cls-3" d="M37.8064,120.70972h5.80646V19.93741c-2-.06444-3.20966-.04859-5.70161-.04859Z"/><path class="cls-3" d="M51.48383,120.70972h5.80646V49.32807l-5.80646,2.76929Z"/><polygon class="cls-3" points="25.71 120.71 31.064 120.71 31.064 77.919 25.71 80.529 25.71 120.71"/><polygon class="cls-3" points="33.064 120.71 38.903 120.71 38.903 74.098 33.064 76.944 33.064 120.71"/><polygon class="cls-3" points="40.71 73.218 40.71 120.71 66.29 120.71 66.29 79.653 47.71 69.806 40.71 73.218"/><polygon class="cls-4" points="66.654 92.807 66.654 90.07 50.572 83.453 50.572 86.19 66.654 92.807"/><polygon class="cls-4" points="66.654 100.807 66.654 98.07 50.572 91.453 50.572 94.19 66.654 100.807"/><polygon class="cls-4" points="66.654 108.807 66.654 106.07 50.572 99.453 50.572 102.19 66.654 108.807"/><polygon class="cls-4" points="66.654 116.807 66.654 114.07 50.572 107.453 50.572 110.19 66.654 116.807"/><polygon class="cls-4" points="55.989 120.419 62.642 120.419 50.572 115.453 50.572 118.19 55.989 120.419"/></svg>